# xmcd
#
# Track frame offsets: 
#        150
#        13877
#        24127
#        38887
#        51817
#        62760
#        74717
#        86270
#        98190
#        108682
#        120292
#        133910
#        145512
#        155770
#        167457
#        177720
#        188715
#        203675
#        215215
#        225455
#        236045
#        250040
#        260642
#        271870
#        283047
#
# Disc length: 3931 seconds
#
# Revision: 0
# Processed by: cddbd v1.5.2PL0 Copyright (c) Steve Scherf et al.
# Submitted via: ExactAudioCopy v1.0b3
#
DISCID=6c0f5919
DTITLE=Bob Wills and His Texas Playboys - Faded Love 1947-1973 [CD6]
DYEAR=2005
DGENRE=Country
TTITLE0=Betty's Waltz
TTITLE1=Wills Breakdown
TTITLE2=La Golondrina
TTITLE3=Texas Two Step
TTITLE4=Wait'll You See
TTITLE5=An Old Flame
TTITLE6=Oh Monah
TTITLE7=I'll Always Be In Love With You
TTITLE8=With Tears In My Eyes
TTITLE9=Take Me Back To Tulsa
TTITLE10=The Kind Of Love I Can't Forget
TTITLE11=Time Changes Everything
TTITLE12=Stay A Little Longer
TTITLE13=You Don't Love Me But I'll Always Care
TTITLE14=San Antonio Rose
TTITLE15=Spanish Two Step
TTITLE16=Dusty Skies
TTITLE17=Keeper Of My Heart
TTITLE18=A Maiden's Prayer
TTITLE19=Ida Red
TTITLE20=Goodnight Little Sweetheart
TTITLE21=The Image Of Me
TTITLE22=Goodbye Liza Jane
TTITLE23=What's The Matter With The Mill
TTITLE24=Heart To Heart Talk
EXTD=
EXTT0=
EXTT1=
EXTT2=
EXTT3=
EXTT4=
EXTT5=
EXTT6=
EXTT7=
EXTT8=
EXTT9=
EXTT10=
EXTT11=
EXTT12=
EXTT13=
EXTT14=
EXTT15=
EXTT16=
EXTT17=
EXTT18=
EXTT19=
EXTT20=
EXTT21=
EXTT22=
EXTT23=
EXTT24=
PLAYORDER=
